<mxfile host="65bd71144e" modified="2020-12-12T08:43:49.202Z" agent="5.0 (Windows NT 10.0; Win64; x64) AppleWebKit/537.36 (KHTML, like Gecko) Code/1.52.0 Chrome/83.0.4103.122 Electron/9.3.5 Safari/537.36" version="13.10.0" etag="A6gnhAYhTVC17h8--OHq" type="embed">
    <diagram id="pec-dXRKEfznwlrc0vBk" name="Page-1">
        <mxGraphModel dx="1666" dy="760" grid="1" gridSize="10" guides="1" tooltips="1" connect="1" arrows="1" fold="1" page="1" pageScale="1" pageWidth="1100" pageHeight="1700" background="#F1FAEE" math="0" shadow="0">
            <root>
                <mxCell id="0"/>
                <mxCell id="1" parent="0"/>
                <mxCell id="49" style="edgeStyle=orthogonalEdgeStyle;rounded=1;orthogonalLoop=1;jettySize=auto;html=1;exitX=0;exitY=0.5;exitDx=0;exitDy=0;entryX=1;entryY=0.5;entryDx=0;entryDy=0;strokeColor=#457B9D;fillColor=#A8DADC;fontColor=#1D3557;" edge="1" parent="1" source="2" target="42">
                    <mxGeometry relative="1" as="geometry"/>
                </mxCell>
                <mxCell id="2" value="&lt;h1&gt;USER&lt;/h1&gt;" style="whiteSpace=wrap;html=1;fillColor=#A8DADC;strokeColor=#457B9D;fontColor=#1D3557;" vertex="1" parent="1">
                    <mxGeometry x="1113" y="300" width="120" height="60" as="geometry"/>
                </mxCell>
                <mxCell id="36" style="edgeStyle=orthogonalEdgeStyle;rounded=1;orthogonalLoop=1;jettySize=auto;html=1;exitX=1;exitY=0.5;exitDx=0;exitDy=0;entryX=0.5;entryY=0;entryDx=0;entryDy=0;strokeColor=#457B9D;fillColor=#A8DADC;fontColor=#1D3557;" edge="1" parent="1" source="4" target="34">
                    <mxGeometry relative="1" as="geometry">
                        <Array as="points">
                            <mxPoint x="1043" y="780"/>
                            <mxPoint x="1043" y="930"/>
                            <mxPoint x="1743" y="930"/>
                        </Array>
                    </mxGeometry>
                </mxCell>
                <mxCell id="4" value="&lt;h1&gt;Admin&lt;/h1&gt;" style="whiteSpace=wrap;html=1;fillColor=#A8DADC;strokeColor=#457B9D;fontColor=#1D3557;" vertex="1" parent="1">
                    <mxGeometry x="823" y="750" width="150" height="60" as="geometry"/>
                </mxCell>
                <mxCell id="32" style="edgeStyle=orthogonalEdgeStyle;orthogonalLoop=1;jettySize=auto;html=1;exitX=0.5;exitY=1;exitDx=0;exitDy=0;entryX=0.5;entryY=0;entryDx=0;entryDy=0;strokeColor=#457B9D;fillColor=#A8DADC;fontColor=#1D3557;" edge="1" parent="1" source="5" target="31">
                    <mxGeometry relative="1" as="geometry"/>
                </mxCell>
                <mxCell id="5" value="&lt;h1&gt;Customer&lt;/h1&gt;" style="whiteSpace=wrap;html=1;fillColor=#A8DADC;strokeColor=#457B9D;fontColor=#1D3557;" vertex="1" parent="1">
                    <mxGeometry x="1098" y="750" width="150" height="60" as="geometry"/>
                </mxCell>
                <mxCell id="6" value="&lt;h1&gt;Delivery_boy&lt;/h1&gt;" style="whiteSpace=wrap;html=1;fillColor=#A8DADC;strokeColor=#457B9D;fontColor=#1D3557;" vertex="1" parent="1">
                    <mxGeometry x="1373" y="750" width="160" height="60" as="geometry"/>
                </mxCell>
                <mxCell id="7" value="&lt;h1&gt;Product&lt;/h1&gt;" style="whiteSpace=wrap;html=1;fillColor=#A8DADC;strokeColor=#457B9D;fontColor=#1D3557;" vertex="1" parent="1">
                    <mxGeometry x="830.5" y="1330" width="120" height="60" as="geometry"/>
                </mxCell>
                <mxCell id="40" style="edgeStyle=orthogonalEdgeStyle;rounded=1;orthogonalLoop=1;jettySize=auto;html=1;exitX=0.5;exitY=1;exitDx=0;exitDy=0;entryX=0.5;entryY=1;entryDx=0;entryDy=0;strokeColor=#457B9D;fillColor=#A8DADC;fontColor=#1D3557;" edge="1" parent="1" source="8" target="38">
                    <mxGeometry relative="1" as="geometry"/>
                </mxCell>
                <mxCell id="8" value="&lt;h1&gt;Order&lt;/h1&gt;" style="whiteSpace=wrap;html=1;fillColor=#A8DADC;strokeColor=#457B9D;fontColor=#1D3557;" vertex="1" parent="1">
                    <mxGeometry x="1403" y="1400" width="120" height="60" as="geometry"/>
                </mxCell>
                <mxCell id="17" value="" style="endArrow=classic;html=1;strokeColor=#457B9D;fillColor=#A8DADC;fontColor=#1D3557;exitX=0.5;exitY=1;exitDx=0;exitDy=0;entryX=0;entryY=0.5;entryDx=0;entryDy=0;" edge="1" parent="1" source="2" target="3">
                    <mxGeometry width="50" height="50" relative="1" as="geometry">
                        <mxPoint x="1243" y="540" as="sourcePoint"/>
                        <mxPoint x="1293" y="490" as="targetPoint"/>
                    </mxGeometry>
                </mxCell>
                <mxCell id="18" value="" style="endArrow=classic;html=1;strokeColor=#457B9D;fillColor=#A8DADC;fontColor=#1D3557;entryX=0;entryY=0.5;entryDx=0;entryDy=0;exitX=1;exitY=0.5;exitDx=0;exitDy=0;" edge="1" parent="1" source="3">
                    <mxGeometry width="50" height="50" relative="1" as="geometry">
                        <mxPoint x="1173" y="570" as="sourcePoint"/>
                        <mxPoint x="902.1700000000001" y="750" as="targetPoint"/>
                    </mxGeometry>
                </mxCell>
                <mxCell id="3" value="&lt;h2&gt;Is a&lt;/h2&gt;" style="triangle;whiteSpace=wrap;html=1;direction=south;fillColor=#A8DADC;strokeColor=#457B9D;fontColor=#1D3557;" vertex="1" parent="1">
                    <mxGeometry x="1133" y="520" width="80" height="60" as="geometry"/>
                </mxCell>
                <mxCell id="19" value="" style="endArrow=classic;html=1;strokeColor=#457B9D;fillColor=#A8DADC;fontColor=#1D3557;entryX=0.5;entryY=0;entryDx=0;entryDy=0;exitX=1;exitY=0.5;exitDx=0;exitDy=0;" edge="1" parent="1" source="3" target="6">
                    <mxGeometry width="50" height="50" relative="1" as="geometry">
                        <mxPoint x="1183" y="590" as="sourcePoint"/>
                        <mxPoint x="912.1699999999998" y="760" as="targetPoint"/>
                    </mxGeometry>
                </mxCell>
                <mxCell id="20" value="" style="endArrow=classic;html=1;strokeColor=#457B9D;fillColor=#A8DADC;fontColor=#1D3557;entryX=0.5;entryY=0;entryDx=0;entryDy=0;" edge="1" parent="1" target="5">
                    <mxGeometry width="50" height="50" relative="1" as="geometry">
                        <mxPoint x="1173" y="580" as="sourcePoint"/>
                        <mxPoint x="912.1699999999998" y="760" as="targetPoint"/>
                    </mxGeometry>
                </mxCell>
                <mxCell id="29" style="edgeStyle=orthogonalEdgeStyle;orthogonalLoop=1;jettySize=auto;html=1;exitX=0.5;exitY=1;exitDx=0;exitDy=0;strokeColor=#457B9D;fillColor=#A8DADC;fontColor=#1D3557;entryX=0.5;entryY=0;entryDx=0;entryDy=0;" edge="1" parent="1" source="21" target="7">
                    <mxGeometry relative="1" as="geometry">
                        <mxPoint x="890" y="1320" as="targetPoint"/>
                    </mxGeometry>
                </mxCell>
                <mxCell id="21" value="&lt;h1&gt;Removes&lt;/h1&gt;" style="rhombus;whiteSpace=wrap;html=1;strokeColor=#457B9D;fillColor=#A8DADC;fontColor=#1D3557;" vertex="1" parent="1">
                    <mxGeometry x="818" y="1130" width="145" height="110" as="geometry"/>
                </mxCell>
                <mxCell id="30" style="edgeStyle=orthogonalEdgeStyle;orthogonalLoop=1;jettySize=auto;html=1;exitX=0.5;exitY=1;exitDx=0;exitDy=0;entryX=1;entryY=0.5;entryDx=0;entryDy=0;strokeColor=#457B9D;fillColor=#A8DADC;fontColor=#1D3557;" edge="1" parent="1" source="22" target="7">
                    <mxGeometry relative="1" as="geometry">
                        <Array as="points">
                            <mxPoint x="1083" y="1030"/>
                            <mxPoint x="1083" y="1360"/>
                        </Array>
                    </mxGeometry>
                </mxCell>
                <mxCell id="22" value="&lt;h1&gt;Adds&lt;/h1&gt;" style="rhombus;whiteSpace=wrap;html=1;strokeColor=#457B9D;fillColor=#A8DADC;fontColor=#1D3557;" vertex="1" parent="1">
                    <mxGeometry x="840.5" y="950" width="115" height="80" as="geometry"/>
                </mxCell>
                <mxCell id="23" value="" style="endArrow=classic;html=1;strokeColor=#457B9D;fillColor=#A8DADC;fontColor=#1D3557;exitX=0.5;exitY=1;exitDx=0;exitDy=0;entryX=0.5;entryY=0;entryDx=0;entryDy=0;" edge="1" parent="1" source="4" target="22">
                    <mxGeometry width="50" height="50" relative="1" as="geometry">
                        <mxPoint x="1263" y="1140" as="sourcePoint"/>
                        <mxPoint x="1313" y="1090" as="targetPoint"/>
                    </mxGeometry>
                </mxCell>
                <mxCell id="25" value="" style="endArrow=classic;html=1;strokeColor=#457B9D;fillColor=#A8DADC;fontColor=#1D3557;exitX=0;exitY=0.5;exitDx=0;exitDy=0;entryX=0;entryY=0.5;entryDx=0;entryDy=0;" edge="1" parent="1" source="4" target="21">
                    <mxGeometry width="50" height="50" relative="1" as="geometry">
                        <mxPoint x="1263" y="1020" as="sourcePoint"/>
                        <mxPoint x="1313" y="970" as="targetPoint"/>
                        <Array as="points">
                            <mxPoint x="683" y="780"/>
                            <mxPoint x="683" y="1185"/>
                        </Array>
                    </mxGeometry>
                </mxCell>
                <mxCell id="26" value="" style="endArrow=classic;html=1;strokeColor=#457B9D;fillColor=#A8DADC;fontColor=#1D3557;exitX=1;exitY=0.5;exitDx=0;exitDy=0;entryX=0.5;entryY=1;entryDx=0;entryDy=0;" edge="1" parent="1" source="22" target="6">
                    <mxGeometry width="50" height="50" relative="1" as="geometry">
                        <mxPoint x="1303" y="1050" as="sourcePoint"/>
                        <mxPoint x="1353" y="1000" as="targetPoint"/>
                        <Array as="points">
                            <mxPoint x="956" y="860"/>
                            <mxPoint x="1453" y="860"/>
                        </Array>
                    </mxGeometry>
                </mxCell>
                <mxCell id="27" value="" style="endArrow=classic;html=1;strokeColor=#457B9D;fillColor=#A8DADC;fontColor=#1D3557;exitX=1;exitY=0.5;exitDx=0;exitDy=0;entryX=0.75;entryY=1;entryDx=0;entryDy=0;" edge="1" parent="1" source="21" target="6">
                    <mxGeometry width="50" height="50" relative="1" as="geometry">
                        <mxPoint x="955.5" y="1190" as="sourcePoint"/>
                        <mxPoint x="1453" y="1010" as="targetPoint"/>
                        <Array as="points">
                            <mxPoint x="963" y="1020"/>
                            <mxPoint x="1493" y="1020"/>
                        </Array>
                    </mxGeometry>
                </mxCell>
                <mxCell id="33" style="edgeStyle=orthogonalEdgeStyle;orthogonalLoop=1;jettySize=auto;html=1;exitX=0.5;exitY=1;exitDx=0;exitDy=0;entryX=0;entryY=0.5;entryDx=0;entryDy=0;strokeColor=#457B9D;fillColor=#A8DADC;fontColor=#1D3557;" edge="1" parent="1" source="31" target="8">
                    <mxGeometry relative="1" as="geometry"/>
                </mxCell>
                <mxCell id="31" value="&lt;h1&gt;Makes&lt;/h1&gt;" style="rhombus;whiteSpace=wrap;html=1;strokeColor=#457B9D;fillColor=#A8DADC;fontColor=#1D3557;" vertex="1" parent="1">
                    <mxGeometry x="1273" y="1200" width="160" height="110" as="geometry"/>
                </mxCell>
                <mxCell id="37" style="edgeStyle=orthogonalEdgeStyle;rounded=1;orthogonalLoop=1;jettySize=auto;html=1;exitX=0.5;exitY=1;exitDx=0;exitDy=0;entryX=1;entryY=0.5;entryDx=0;entryDy=0;strokeColor=#457B9D;fillColor=#A8DADC;fontColor=#1D3557;" edge="1" parent="1" source="34" target="8">
                    <mxGeometry relative="1" as="geometry"/>
                </mxCell>
                <mxCell id="34" value="&lt;h1&gt;Assigns&lt;/h1&gt;" style="rhombus;whiteSpace=wrap;html=1;strokeColor=#457B9D;fillColor=#A8DADC;fontColor=#1D3557;" vertex="1" parent="1">
                    <mxGeometry x="1663" y="1090" width="160" height="90" as="geometry"/>
                </mxCell>
                <mxCell id="41" style="edgeStyle=orthogonalEdgeStyle;rounded=1;orthogonalLoop=1;jettySize=auto;html=1;exitX=0.5;exitY=0;exitDx=0;exitDy=0;entryX=1;entryY=0.5;entryDx=0;entryDy=0;strokeColor=#457B9D;fillColor=#A8DADC;fontColor=#1D3557;" edge="1" parent="1" source="38" target="6">
                    <mxGeometry relative="1" as="geometry"/>
                </mxCell>
                <mxCell id="38" value="&lt;h1&gt;Allocated to&lt;/h1&gt;" style="rhombus;whiteSpace=wrap;html=1;strokeColor=#457B9D;fillColor=#A8DADC;fontColor=#1D3557;" vertex="1" parent="1">
                    <mxGeometry x="2003" y="1070" width="190" height="110" as="geometry"/>
                </mxCell>
                <mxCell id="42" value="&lt;h1&gt;&lt;u&gt;Id&lt;/u&gt;&lt;/h1&gt;" style="ellipse;whiteSpace=wrap;html=1;strokeColor=#457B9D;fillColor=#A8DADC;fontColor=#1D3557;" vertex="1" parent="1">
                    <mxGeometry x="710.5" y="290" width="120" height="80" as="geometry"/>
                </mxCell>
                <mxCell id="43" value="&lt;h1&gt;Name&lt;/h1&gt;" style="ellipse;whiteSpace=wrap;html=1;strokeColor=#457B9D;fillColor=#A8DADC;fontColor=#1D3557;" vertex="1" parent="1">
                    <mxGeometry x="790" y="130" width="120" height="80" as="geometry"/>
                </mxCell>
                <mxCell id="44" value="&lt;h1&gt;Email&lt;/h1&gt;" style="ellipse;whiteSpace=wrap;html=1;strokeColor=#457B9D;fillColor=#A8DADC;fontColor=#1D3557;" vertex="1" parent="1">
                    <mxGeometry x="955.5" y="20" width="120" height="80" as="geometry"/>
                </mxCell>
                <mxCell id="45" value="&lt;h1&gt;Phone number&lt;/h1&gt;" style="ellipse;whiteSpace=wrap;html=1;strokeColor=#457B9D;fillColor=#A8DADC;fontColor=#1D3557;dashed=1;" vertex="1" parent="1">
                    <mxGeometry x="1170" y="20" width="120" height="80" as="geometry"/>
                </mxCell>
                <mxCell id="46" value="&lt;h1&gt;Password&lt;/h1&gt;" style="ellipse;whiteSpace=wrap;html=1;strokeColor=#457B9D;fillColor=#A8DADC;fontColor=#1D3557;" vertex="1" parent="1">
                    <mxGeometry x="1430" y="80" width="120" height="80" as="geometry"/>
                </mxCell>
                <mxCell id="47" value="&lt;h1&gt;Role&lt;/h1&gt;" style="ellipse;whiteSpace=wrap;html=1;strokeColor=#457B9D;fillColor=#A8DADC;fontColor=#1D3557;" vertex="1" parent="1">
                    <mxGeometry x="1520" y="290" width="120" height="80" as="geometry"/>
                </mxCell>
                <mxCell id="51" value="" style="endArrow=classic;html=1;strokeColor=#457B9D;fillColor=#A8DADC;fontColor=#1D3557;entryX=1;entryY=1;entryDx=0;entryDy=0;exitX=0;exitY=0.25;exitDx=0;exitDy=0;" edge="1" parent="1" source="2" target="43">
                    <mxGeometry width="50" height="50" relative="1" as="geometry">
                        <mxPoint x="1160" y="400" as="sourcePoint"/>
                        <mxPoint x="1210" y="350" as="targetPoint"/>
                    </mxGeometry>
                </mxCell>
                <mxCell id="52" value="" style="endArrow=classic;html=1;strokeColor=#457B9D;fillColor=#A8DADC;fontColor=#1D3557;entryX=0.5;entryY=1;entryDx=0;entryDy=0;exitX=0;exitY=0;exitDx=0;exitDy=0;" edge="1" parent="1" source="2" target="44">
                    <mxGeometry width="50" height="50" relative="1" as="geometry">
                        <mxPoint x="1123" y="325" as="sourcePoint"/>
                        <mxPoint x="902.4264068711927" y="208.2842712474619" as="targetPoint"/>
                    </mxGeometry>
                </mxCell>
                <mxCell id="53" value="" style="endArrow=classic;html=1;strokeColor=#457B9D;fillColor=#A8DADC;fontColor=#1D3557;entryX=0.5;entryY=1;entryDx=0;entryDy=0;exitX=0.75;exitY=0;exitDx=0;exitDy=0;" edge="1" parent="1" source="2" target="45">
                    <mxGeometry width="50" height="50" relative="1" as="geometry">
                        <mxPoint x="1123" y="310" as="sourcePoint"/>
                        <mxPoint x="1025.5" y="110" as="targetPoint"/>
                    </mxGeometry>
                </mxCell>
                <mxCell id="54" value="" style="endArrow=classic;html=1;strokeColor=#457B9D;fillColor=#A8DADC;fontColor=#1D3557;entryX=0;entryY=0.5;entryDx=0;entryDy=0;exitX=1;exitY=0;exitDx=0;exitDy=0;" edge="1" parent="1" source="2" target="46">
                    <mxGeometry width="50" height="50" relative="1" as="geometry">
                        <mxPoint x="1183" y="310" as="sourcePoint"/>
                        <mxPoint x="1303" y="110" as="targetPoint"/>
                    </mxGeometry>
                </mxCell>
                <mxCell id="55" value="" style="endArrow=classic;html=1;strokeColor=#457B9D;fillColor=#A8DADC;fontColor=#1D3557;entryX=0;entryY=0.5;entryDx=0;entryDy=0;exitX=1;exitY=0.5;exitDx=0;exitDy=0;" edge="1" parent="1" source="2" target="47">
                    <mxGeometry width="50" height="50" relative="1" as="geometry">
                        <mxPoint x="1243" y="310" as="sourcePoint"/>
                        <mxPoint x="1470" y="180" as="targetPoint"/>
                    </mxGeometry>
                </mxCell>
                <mxCell id="56" value="&lt;h1&gt;&lt;u&gt;Id&lt;/u&gt;&lt;/h1&gt;" style="ellipse;whiteSpace=wrap;html=1;strokeColor=#457B9D;fillColor=#A8DADC;fontColor=#1D3557;" vertex="1" parent="1">
                    <mxGeometry x="440" y="1120" width="120" height="80" as="geometry"/>
                </mxCell>
                <mxCell id="57" value="&lt;h1&gt;Name&lt;/h1&gt;" style="ellipse;whiteSpace=wrap;html=1;strokeColor=#457B9D;fillColor=#A8DADC;fontColor=#1D3557;" vertex="1" parent="1">
                    <mxGeometry x="330" y="1230" width="120" height="80" as="geometry"/>
                </mxCell>
                <mxCell id="58" value="&lt;h1&gt;Title&lt;/h1&gt;" style="ellipse;whiteSpace=wrap;html=1;strokeColor=#457B9D;fillColor=#A8DADC;fontColor=#1D3557;" vertex="1" parent="1">
                    <mxGeometry x="310" y="1410" width="120" height="80" as="geometry"/>
                </mxCell>
                <mxCell id="59" value="&lt;h1&gt;Image&lt;/h1&gt;" style="ellipse;whiteSpace=wrap;html=1;strokeColor=#457B9D;fillColor=#A8DADC;fontColor=#1D3557;" vertex="1" parent="1">
                    <mxGeometry x="430" y="1590" width="120" height="80" as="geometry"/>
                </mxCell>
                <mxCell id="60" value="&lt;h1&gt;Description&lt;/h1&gt;" style="ellipse;whiteSpace=wrap;html=1;strokeColor=#457B9D;fillColor=#A8DADC;fontColor=#1D3557;" vertex="1" parent="1">
                    <mxGeometry x="530" y="1750" width="162" height="80" as="geometry"/>
                </mxCell>
                <mxCell id="61" value="&lt;h1&gt;Price&lt;/h1&gt;" style="ellipse;whiteSpace=wrap;html=1;strokeColor=#457B9D;fillColor=#A8DADC;fontColor=#1D3557;" vertex="1" parent="1">
                    <mxGeometry x="730" y="1770" width="120" height="80" as="geometry"/>
                </mxCell>
                <mxCell id="62" value="" style="endArrow=classic;html=1;strokeColor=#457B9D;fillColor=#A8DADC;fontColor=#1D3557;entryX=1;entryY=0.5;entryDx=0;entryDy=0;exitX=0;exitY=0.25;exitDx=0;exitDy=0;" edge="1" parent="1" source="7" target="56">
                    <mxGeometry width="50" height="50" relative="1" as="geometry">
                        <mxPoint x="1190" y="1610" as="sourcePoint"/>
                        <mxPoint x="1240" y="1560" as="targetPoint"/>
                    </mxGeometry>
                </mxCell>
                <mxCell id="63" value="" style="endArrow=classic;html=1;strokeColor=#457B9D;fillColor=#A8DADC;fontColor=#1D3557;entryX=1;entryY=0.5;entryDx=0;entryDy=0;" edge="1" parent="1" target="57">
                    <mxGeometry width="50" height="50" relative="1" as="geometry">
                        <mxPoint x="830" y="1360" as="sourcePoint"/>
                        <mxPoint x="620" y="1370" as="targetPoint"/>
                    </mxGeometry>
                </mxCell>
                <mxCell id="64" value="" style="endArrow=classic;html=1;strokeColor=#457B9D;fillColor=#A8DADC;fontColor=#1D3557;entryX=1;entryY=0.5;entryDx=0;entryDy=0;exitX=0;exitY=0.75;exitDx=0;exitDy=0;" edge="1" parent="1" source="7" target="58">
                    <mxGeometry width="50" height="50" relative="1" as="geometry">
                        <mxPoint x="840" y="1400" as="sourcePoint"/>
                        <mxPoint x="660" y="1550" as="targetPoint"/>
                    </mxGeometry>
                </mxCell>
                <mxCell id="65" value="" style="endArrow=classic;html=1;strokeColor=#457B9D;fillColor=#A8DADC;fontColor=#1D3557;entryX=0.5;entryY=0;entryDx=0;entryDy=0;exitX=0;exitY=1;exitDx=0;exitDy=0;" edge="1" parent="1" source="7" target="59">
                    <mxGeometry width="50" height="50" relative="1" as="geometry">
                        <mxPoint x="870.5" y="1400" as="sourcePoint"/>
                        <mxPoint x="760" y="1630" as="targetPoint"/>
                    </mxGeometry>
                </mxCell>
                <mxCell id="66" value="" style="endArrow=classic;html=1;strokeColor=#457B9D;fillColor=#A8DADC;fontColor=#1D3557;entryX=0.5;entryY=0;entryDx=0;entryDy=0;exitX=0.25;exitY=1;exitDx=0;exitDy=0;" edge="1" parent="1" source="7" target="60">
                    <mxGeometry width="50" height="50" relative="1" as="geometry">
                        <mxPoint x="900.5" y="1400" as="sourcePoint"/>
                        <mxPoint x="970" y="1650" as="targetPoint"/>
                    </mxGeometry>
                </mxCell>
                <mxCell id="67" value="" style="endArrow=classic;html=1;strokeColor=#457B9D;fillColor=#A8DADC;fontColor=#1D3557;entryX=0.5;entryY=0;entryDx=0;entryDy=0;exitX=0.5;exitY=1;exitDx=0;exitDy=0;" edge="1" parent="1" source="7" target="61">
                    <mxGeometry width="50" height="50" relative="1" as="geometry">
                        <mxPoint x="960.5" y="1400" as="sourcePoint"/>
                        <mxPoint x="1138" y="1620" as="targetPoint"/>
                    </mxGeometry>
                </mxCell>
                <mxCell id="68" value="&lt;h1&gt;&lt;u&gt;Id&lt;/u&gt;&lt;/h1&gt;" style="ellipse;whiteSpace=wrap;html=1;strokeColor=#457B9D;fillColor=#A8DADC;fontColor=#1D3557;" vertex="1" parent="1">
                    <mxGeometry x="1050" y="1430" width="120" height="80" as="geometry"/>
                </mxCell>
                <mxCell id="69" value="&lt;h1&gt;ProductList&lt;/h1&gt;" style="ellipse;whiteSpace=wrap;html=1;strokeColor=#457B9D;fillColor=#A8DADC;fontColor=#1D3557;" vertex="1" parent="1">
                    <mxGeometry x="1100" y="1590" width="170" height="80" as="geometry"/>
                </mxCell>
                <mxCell id="70" value="&lt;h1&gt;Customer_Id&lt;/h1&gt;" style="ellipse;whiteSpace=wrap;html=1;strokeColor=#457B9D;fillColor=#A8DADC;fontColor=#1D3557;" vertex="1" parent="1">
                    <mxGeometry x="1260" y="1700" width="170" height="80" as="geometry"/>
                </mxCell>
                <mxCell id="71" value="&lt;h1&gt;Status&lt;/h1&gt;" style="ellipse;whiteSpace=wrap;html=1;strokeColor=#457B9D;fillColor=#A8DADC;fontColor=#1D3557;" vertex="1" parent="1">
                    <mxGeometry x="1490" y="1660" width="120" height="80" as="geometry"/>
                </mxCell>
                <mxCell id="72" value="/" style="endArrow=classic;html=1;strokeColor=#457B9D;fillColor=#A8DADC;fontColor=#1D3557;entryX=1;entryY=0.5;entryDx=0;entryDy=0;exitX=0;exitY=0.75;exitDx=0;exitDy=0;" edge="1" parent="1" source="8" target="68">
                    <mxGeometry width="50" height="50" relative="1" as="geometry">
                        <mxPoint x="900.5" y="1400" as="sourcePoint"/>
                        <mxPoint x="800" y="1780" as="targetPoint"/>
                    </mxGeometry>
                </mxCell>
                <mxCell id="73" value="/" style="endArrow=classic;html=1;strokeColor=#457B9D;fillColor=#A8DADC;fontColor=#1D3557;entryX=1;entryY=0.5;entryDx=0;entryDy=0;exitX=0.058;exitY=1;exitDx=0;exitDy=0;exitPerimeter=0;" edge="1" parent="1" source="8" target="69">
                    <mxGeometry width="50" height="50" relative="1" as="geometry">
                        <mxPoint x="1400" y="1450" as="sourcePoint"/>
                        <mxPoint x="1180" y="1480" as="targetPoint"/>
                    </mxGeometry>
                </mxCell>
                <mxCell id="74" value="/" style="endArrow=classic;html=1;strokeColor=#457B9D;fillColor=#A8DADC;fontColor=#1D3557;entryX=0.5;entryY=0;entryDx=0;entryDy=0;exitX=0.25;exitY=1;exitDx=0;exitDy=0;" edge="1" parent="1" source="8" target="70">
                    <mxGeometry width="50" height="50" relative="1" as="geometry">
                        <mxPoint x="1419.96" y="1470" as="sourcePoint"/>
                        <mxPoint x="1280" y="1640" as="targetPoint"/>
                    </mxGeometry>
                </mxCell>
                <mxCell id="75" value="/" style="endArrow=classic;html=1;strokeColor=#457B9D;fillColor=#A8DADC;fontColor=#1D3557;entryX=0.5;entryY=0;entryDx=0;entryDy=0;exitX=0.25;exitY=1;exitDx=0;exitDy=0;" edge="1" parent="1" source="8" target="71">
                    <mxGeometry width="50" height="50" relative="1" as="geometry">
                        <mxPoint x="1443" y="1470" as="sourcePoint"/>
                        <mxPoint x="1355" y="1710" as="targetPoint"/>
                    </mxGeometry>
                </mxCell>
            </root>
        </mxGraphModel>
    </diagram>
</mxfile>